HIERARCHY
ROOT Hips
{
  OFFSET 0 0 0
  CHANNELS 6 Xposition Yposition Zposition Zrotation Xrotation Yrotation
  JOINT Spine
  {
    OFFSET 0.00000000 0.00000000 0.00000000
    CHANNELS 3 Zrotation Xrotation Yrotation
    JOINT Spine1
    {
      OFFSET 0.19000000 0.00000000 0.00000000
      CHANNELS 3 Zrotation Xrotation Yrotation
      JOINT Neck
      {
        OFFSET 0.22500000 0.00600000 0.00000000
        CHANNELS 3 Zrotation Xrotation Yrotation
        JOINT Head
        {
          OFFSET 0.14000000 0.00030878 0.00000000
          CHANNELS 3 Zrotation Xrotation Yrotation
          End Site
          {
            OFFSET 0.17000000 0.00000000 0.00000000
          }
        }
      }
      JOINT LeftShoulder
      {
        OFFSET 0.19800000 0.03700000 0.04300000
        CHANNELS 3 Zrotation Xrotation Yrotation
        JOINT LeftArm
        {
          OFFSET 0.08000000 0.00000000 0.00000000
          CHANNELS 3 Zrotation Xrotation Yrotation
          JOINT LeftForeArm
          {
            OFFSET 0.15200000 0.00000000 0.00000000
            CHANNELS 3 Zrotation Xrotation Yrotation
            JOINT LeftHand
            {
              OFFSET 0.17800000 0.00000000 0.00000000
              CHANNELS 3 Zrotation Xrotation Yrotation
              End Site
              {
                OFFSET 0.07200000 0.00000000 0.00000000
              }
            }
          }
        }
      }
      JOINT RightShoulder
      {
        OFFSET 0.19800000 0.03700000 -0.04300000
        CHANNELS 3 Zrotation Xrotation Yrotation
        JOINT RightArm
        {
          OFFSET 0.08000000 0.00000000 0.00151654
          CHANNELS 3 Zrotation Xrotation Yrotation
          JOINT RightForeArm
          {
            OFFSET 0.15200000 0.00000000 0.00000000
            CHANNELS 3 Zrotation Xrotation Yrotation
            JOINT RightHand
            {
              OFFSET 0.17800000 0.00000000 0.00000000
              CHANNELS 3 Zrotation Xrotation Yrotation
              End Site
              {
                OFFSET 0.07200000 0.00000000 0.00000000
              }
            }
          }
        }
      }
    }
  }
  JOINT LeftUpLeg
  {
    OFFSET 0.05984250 -0.07666000 0.04788790
    CHANNELS 3 Zrotation Xrotation Yrotation
    JOINT LeftLeg
    {
      OFFSET 0.16000000 0.00000000 0.00000000
      CHANNELS 3 Zrotation Xrotation Yrotation
      JOINT LeftFoot
      {
        OFFSET 0.18000000 0.00000000 0.00000000
        CHANNELS 3 Zrotation Xrotation Yrotation
        End Site
        {
          OFFSET 0.00000000 -0.10800000 0.00000000
        }
      }
    }
  }
  JOINT RightUpLeg
  {
    OFFSET 0.05984250 -0.07665980 -0.04788790
    CHANNELS 3 Zrotation Xrotation Yrotation
    JOINT RightLeg
    {
      OFFSET 0.16000000 0.00000000 0.00000000
      CHANNELS 3 Zrotation Xrotation Yrotation
      JOINT RightFoot
      {
        OFFSET 0.18000000 0.00000000 0.00000000
        CHANNELS 3 Zrotation Xrotation Yrotation
        End Site
        {
          OFFSET 0.00000000 -0.10800000 0.00000000
        }
      }
    }
  }
  JOINT Tail
  {
    OFFSET 0.06836960 -0.00722574 0.00000000
    CHANNELS 3 Zrotation Xrotation Yrotation
    JOINT Tail1
    {
      OFFSET 0.12000000 0.00000000 0.00000000
      CHANNELS 3 Zrotation Xrotation Yrotation
      End Site
      {
        OFFSET 0.12000000 0.00000000 0.00000000
      }
    }
  }
}
MOTION
Frames:	10
Frame Time:	0.0166667
0.0000000 0.4418110 0.0000000 -9.72554 1.59790 0.27383 -150.049 -0.976337 -11.189 -34.091 -3.21455 12.5413 -29.9013 -10.7329 4.72562 -122.201 72.7133 108.727 -109.15 -32.8477 -142.48 131.189 -57.2319 -128.794 -73.6274 -34.5128 6.26854 45.9501 2.4818 -3.29533 75.6392 -30.6642 47.3455 36.2345 -52.2045 -43.4162 -67.0422 -19.6672 0.155631 -9.17665 0.359791 3.15165 -132.979 4.62357 -24.4151 73.2791 10.212 9.53226 40.5412 -2.28246 -4.72728 -114.07 -13.0822 4.34119 89.6269 -12.2744 -0.880973 37.8464 0.542294 -0.977691 4.92152 26.9594 -62.5091 8.3227 -6.64198 -6.39253 
-0.0044031 0.4407690 0.0059120 -9.41508 1.99163 0.54364 -149.64 -0.584986 -11.6035 -35.1062 -3.57709 14.0818 -29.6078 -10.5353 3.64009 -122.394 72.637 107.498 -109.618 -33.8862 -141.532 127.947 -56.6732 -131.747 -75.1385 -48.9703 9.37209 50.2211 -1.90178 -19.4674 75.5901 -30.6896 47.2311 38.4216 -53.2813 -41.0779 -68.8767 -19.1122 -0.422302 -8.49397 0.365023 3.09572 -133.643 4.31551 -24.3819 75.0701 10.2495 9.47384 39.2071 -2.22139 -4.66722 -113.945 -14.7194 2.95386 89.7734 -11.4854 -0.350879 38.8618 0.393259 -1.19238 4.14788 32.6929 -64.2544 8.5312 -7.17914 -6.74272 
-0.0105644 0.4407890 0.0146913 -9.01896 2.63453 0.96924 -148.915 -0.145319 -12.0004 -36.5892 -4.14901 15.9523 -29.0136 -11.2494 2.65739 -122.915 72.023 106.207 -110.088 -35.1079 -140.256 121.14 -53.7872 -137.632 -70.8683 -64.2309 18.5457 47.4258 -6.55007 -37.8928 75.4868 -30.6375 46.7523 41.5183 -54.0535 -38.1113 -70.8858 -18.4374 -1.0451 -7.54999 0.411645 2.7701 -133.886 3.68138 -24.462 76.3445 10.844 9.43727 37.601 -2.24296 -4.68583 -113.684 -16.0444 2.20949 89.2732 -11.4397 0.065652 41.1867 0.437328 -1.26747 3.00264 40.143 -65.3932 8.41553 -8.42728 -6.7256 
-0.0170240 0.4418750 0.0239410 -8.34616 3.31315 1.55455 -148.876 0.27149 -12.0254 -37.421 -4.62562 17.311 -28.3906 -12.7638 2.60031 -123.924 71.7719 105.904 -110.495 -36.0774 -139.393 114.139 -48.8307 -143.347 -54.1525 -73.3033 39.0476 36.9879 -6.46639 -53.0966 75.6084 -30.3318 46.4799 43.6619 -54.3764 -36.1112 -71.8393 -17.8983 -1.34806 -6.80445 0.444396 2.48136 -133.938 3.08628 -24.5943 76.5775 11.9337 9.66258 36.5654 -2.4127 -4.91266 -113.34 -16.2229 2.60205 88.082 -12.4011 0.136993 43.5952 0.671484 -1.14006 0.812335 47.7609 -64.3986 7.74057 -11.1991 -6.26065 
-0.0241622 0.4432240 0.0334078 -7.43229 4.13787 2.14235 -149.777 0.64183 -12.1142 -37.1612 -5.04562 18.6722 -27.8871 -14.572 3.39552 -125.911 72.5573 106.675 -110.681 -36.7923 -138.488 108.298 -42.2707 -146.945 -30.6024 -75.8819 65.7793 26.6066 -2.81879 -61.8212 75.7464 -30.0911 46.4113 44.4702 -54.5903 -34.8678 -71.9296 -17.3166 -1.83193 -6.61138 0.498676 2.26776 -134.17 2.56546 -25.0733 76.7382 12.9769 10.152 35.8423 -2.60385 -5.19058 -113.125 -15.8307 2.97066 86.6688 -12.8315 0.22059 45.8696 0.847194 -1.10346 -3.38604 55.2672 -60.4583 6.38081 -16.9904 -5.59924 
-0.0318771 0.4447480 0.0428350 -6.59412 5.07784 2.69920 -151.035 0.886586 -12.3867 -36.1761 -5.49439 20.1899 -27.5765 -16.2797 4.60557 -128.08 73.5088 107.911 -110.745 -37.21 -137.854 103.494 -34.5968 -149.242 -26.0501 -74.2769 73.5628 20.1945 0.546817 -62.7485 75.8126 -29.9901 46.4121 44.2961 -54.8015 -34.2821 -71.5437 -16.9298 -2.3907 -7.12136 0.522503 2.33821 -134.253 2.00753 -25.4613 76.778 13.7721 10.4691 35.3436 -2.72916 -5.36149 -112.881 -15.2378 3.10657 85.1435 -12.6691 0.369275 48.5104 0.926289 -1.20669 -11.0585 62.037 -51.8633 3.69561 -29.0695 -5.1069 
-0.0397658 0.4467270 0.0521618 -5.92613 6.06115 3.30448 -152.11 1.0872 -12.3897 -35.1453 -5.79919 21.2853 -27.3936 -17.5569 5.90753 -129.711 74.0983 109.01 -110.941 -37.4953 -137.823 99.713 -26.4371 -150.708 -29.4105 -72.1092 73.344 16.3778 2.58486 -59.9729 75.9762 -29.7717 46.4878 43.6748 -55.0567 -34.3317 -70.8483 -16.8467 -2.52722 -7.47003 0.576284 2.23444 -134.169 1.60313 -25.5071 76.847 14.262 10.5544 35.3176 -2.81392 -5.47903 -112.389 -14.5963 3.05349 83.4699 -12.4654 0.535839 50.9963 0.974388 -1.33061 -23.7426 67.4602 -37.4764 0.00835067 -47.9813 -5.29188 
-0.0474915 0.4488580 0.0612758 -5.30390 7.19941 3.95127 -153.23 1.33553 -12.2751 -33.9771 -5.96337 22.2303 -27.3062 -18.3644 7.08132 -131.333 74.5092 110.189 -111.071 -37.6941 -137.783 96.8077 -18.3635 -151.035 -35.2779 -69.7275 69.9128 14.6511 3.37414 -54.4276 76.082 -29.5682 46.3899 42.4207 -55.3786 -34.513 -69.8142 -16.6085 -2.72874 -7.61719 0.663171 2.03879 -134.089 1.42882 -25.5541 76.9699 14.4761 10.5436 35.3262 -2.85798 -5.54134 -111.995 -13.8099 2.63302 81.9672 -12.1155 0.633675 52.987 0.980459 -1.45605 -41.8061 70.2199 -17.223 -6.32043 -71.0493 -8.21216 
-0.0549380 0.4509720 0.0701380 -4.80742 8.16290 4.75644 -154.14 1.55473 -11.8881 -32.9489 -6.12906 22.9645 -27.435 -18.2511 7.62985 -132.283 74.4659 111.092 -111.034 -37.6964 -137.685 94.4521 -11.0457 -150.346 -51.2235 -65.1572 55.6859 14.3075 3.16381 -44.0802 76.1538 -29.393 46.2346 41.2708 -55.614 -34.7612 -68.7338 -16.2872 -2.87493 -7.67383 0.72954 1.89905 -133.963 1.19657 -25.4867 77.0233 14.682 10.4665 35.4801 -2.91099 -5.60614 -111.692 -12.7752 2.43412 80.9387 -10.8228 0.509353 54.2245 0.789565 -1.72224 -60.9321 69.7191 4.88886 -96.7132 -88.09 -95.6043 
-0.0622548 0.4526050 0.0783170 -4.39953 8.92269 5.59781 -154.739 1.6252 -11.4357 -32.3118 -6.39425 23.4705 -27.8523 -17.1688 7.62111 -132.838 74.2831 111.88 -110.954 -37.556 -137.742 92.6499 -6.91044 -149.888 -71.2395 -53.7335 36.4942 12.8925 2.54334 -29.1635 76.2049 -29.2103 45.9818 41.2756 -55.5769 -35.0552 -67.9023 -16.5197 -2.44579 -7.45297 0.832442 1.36497 -133.869 0.93335 -25.4635 77.1358 14.9972 10.4514 35.9039 -2.99491 -5.71709 -112.002 -11.5345 2.2969 81.1298 -8.31653 0.14566 54.8219 0.365576 -2.16779 -75.4407 66.4472 23.0472 -178.654 -78.2297 -175.062 
